# xmcd
#
# Track frame offsets:
# 150
# 11759
# 26225
# 39650
# 52714
# 66675
# 79077
# 92547
# 105220
# 119281
# 133831
# 148355
# 160302
# 171961
# 185686
# 199436
#
# Disc length: 2847 seconds
#
#
# Revision: 1
# Processed by: cddbd v1.5.1PL2 Copyright (c) Steve Scherf et al.
# Submitted via: FreeRIP 2.944 
#
DISCID=e90b1d10
DTITLE=John Lee Hooker - Discover Blues - John Lee Hooker
DYEAR=2004
DGENRE=Blues
TTITLE0=Walkin' The Boogie
TTITLE1=Sally Mae
TTITLE2=Union Station Blues
TTITLE3=Johnny Lee's Original Boogie
TTITLE4=Louise
TTITLE5=High Priced Woman
TTITLE6=Ground Hog Blues
TTITLE7=Leave My Wife ALone
TTITLE8=Dreamin' Blues
TTITLE9=Sugar Mama
TTITLE10=Forgive Me
TTITLE11=Howlin' Wolf
TTITLE12=Queen Bee
TTITLE13=Tease My Baby
TTITLE14=Hobo Blues
TTITLE15=Boogie Chillen
EXTD=1948 - 1952
EXTT0=1952
EXTT1=1948
EXTT2=1951
EXTT3=1948
EXTT4=1951
EXTT5=1951
EXTT6=1951
EXTT7=1951
EXTT8=1951
EXTT9=1952
EXTT10=1949
EXTT11=1949
EXTT12=1949
EXTT13=1949
EXTT14=1949
EXTT15=1948
PLAYORDER=
